# xmcd
#
# Track frame offsets:
#	150
#	9264
#	37770
#	49553
#	58876
#	64522
#	98813
#	105501
#	122757
#	132360
#	144402
#	156582
#	167690
#	188641
#	206966
#	217922
#	233726
#
# Disc length: 3640 seconds
#
# Revision: 1
# Processed by: cddbd v1.5.2PL0 Copyright (c) Steve Scherf et al.
# Submitted via: audiograbber 1.83.01
#
DISCID=e40e3611
DTITLE=Henri Golan - En Public
DYEAR=1900
DGENRE=Humour
TTITLE0=Faut la pousser
TTITLE1=Jogging
TTITLE2=Vos etindez
TTITLE3=Casquette sport
TTITLE4=Li gendarme en panne
TTITLE5=Voir peter
TTITLE6=Les peumes
TTITLE7=City bus
TTITLE8=La via gras
TTITLE9=La parure
TTITLE10=Jesus
TTITLE11=Fiesse di Wallonie
TTITLE12=La brabanconne
TTITLE13=O.Q
TTITLE14=Belgrade
TTITLE15=Les encombrants
TTITLE16=Su l scin ne
EXTD=
EXTT0=
EXTT1=
EXTT2=
EXTT3=
EXTT4=
EXTT5=
EXTT6=
EXTT7=
EXTT8=
EXTT9=
EXTT10=
EXTT11=
EXTT12=
EXTT13=
EXTT14=
EXTT15=
EXTT16=
PLAYORDER=
